MOT_standard
version=1
nRows=23
nColumns=19
endheader
time	ground_force_vx	ground_force_vy	ground_force_vz	ground_force_px	ground_force_py	ground_force_pz	1_ground_force_vx	1_ground_force_vy	1_ground_force_vz	1_ground_force_px	1_ground_force_py	1_ground_force_pz	ground_torque_x	ground_torque_y	ground_torque_z	1_ground_torque_x	1_ground_torque_y	1_ground_torque_z	
0.0	-144.455048	694.675049	176.044064	0.815429	0.0	-0.757935	62.347858	47.372604	86.312576	0.278131	0.0	-0.894989	208.91298	-9.577191	-50.639154	-13.102771	-6.742976	-0.625108	
0.01	-191.981534	680.408447	223.813752	0.805685	0.0	-0.775345	87.919353	-51.649422	-112.777689	0.290554	0.0	-0.843324	216.46837	-6.015791	-56.229057	-14.695488	11.389976	-0.751709	
0.02	-146.720415	688.217773	159.221615	0.811999	0.0	-0.769595	60.067123	16.755302	89.26387	0.0	0.0	0.0	214.995543	6.409522	-52.529018	0.132636	-14.465932	2.168906	
0.03	-153.39847	694.103149	161.770765	0.808882	0.0	-0.772883	55.672798	13.468853	88.424316	0.0	0.0	0.0	219.116808	8.450288	-55.141315	-0.741584	-16.953369	-0.133097	
0.04	-132.536425	705.741821	154.888042	0.816768	0.0	-0.780181	47.356636	31.763317	78.703339	0.0	0.0	0.0	227.941199	4.169227	-50.500991	-14.356538	-5.684232	-2.177385	
0.05	-162.643675	698.151917	207.757093	0.805615	0.0	-0.792342	79.916252	38.564808	99.976906	0.0	0.0	0.0	233.979777	-4.406246	-57.744129	-10.496763	-5.037033	1.691758	
0.06	-143.880646	702.700806	187.297772	0.809231	0.0	-0.799796	69.277328	23.790152	90.236221	0.0	0.0	0.0	240.742714	1.178044	-55.579258	-2.56188	-9.834634	2.730144	
0.07	-165.403289	706.884277	198.566588	0.801429	0.0	-0.795507	71.946648	14.585732	88.482544	0.276938	0.0	-0.883844	239.144026	10.5724	-61.425313	-0.842007	-23.138637	1.991473	
0.08	-161.927672	699.868896	199.290831	0.801803	0.0	-0.80895	58.09174	32.958595	96.562141	0.0	0.0	0.0	246.178589	2.16853	-60.553762	-16.116495	-19.615863	-1.572488	
0.09	-149.779342	718.732422	191.725201	0.806282	0.0	-0.809228	71.155411	37.704338	105.300476	0.290691	0.0	-0.859901	253.013808	16.16363	-58.966907	-4.721974	-2.758147	2.872807	
0.1	-157.546582	699.038879	227.202283	0.800147	0.0	-0.827804	77.564514	36.308189	81.90419	0.0	0.0	0.0	259.066729	4.316336	-61.640103	-9.239118	-14.443294	-1.481782	
0.11	-147.220961	712.559937	206.120404	0.805638	0.0	-0.825124	52.055634	14.457342	67.418518	0.0	0.0	0.0	262.168214	1.993189	-58.919604	-4.41541	-20.162939	-1.601771	
0.12	-171.434431	717.695801	216.550505	0.799856	0.0	-0.831469	71.715149	40.597664	126.98896	0.0	0.0	0.0	268.611557	6.41215	-63.494014	-13.012117	-4.369497	0.679707	
0.13	-141.580321	703.769653	204.509258	0.803489	0.0	-0.843322	66.681595	39.91291	87.221436	0.374152	0.0	-0.823241	271.74087	-0.762702	-59.70521	-8.710729	-4.107397	0.772585	
0.14	-129.098251	721.758362	188.039058	0.808507	0.0	-0.84265	37.995728	9.22209	42.688698	0.0	0.0	0.0	278.201433	4.331237	-57.609019	1.521912	-18.231605	-1.429624	
0.15	-133.398986	714.59668	201.80418	0.80341	0.0	-0.853886	59.872391	22.173122	108.586906	0.0	0.0	0.0	283.470183	-0.947832	-60.679754	-0.2651	1.430113	1.209004	
0.16	-125.509551	708.820374	199.615687	0.806828	0.0	-0.862584	51.396164	25.832958	61.374985	0.0	0.0	0.0	287.344652	2.260595	-57.766637	-6.684668	-16.439035	-1.553199	
0.17	-170.583704	693.976074	253.350157	0.796626	0.0	-0.878096	64.08004	34.443348	98.821388	0.0	0.0	0.0	292.091932	-1.146374	-63.636891	-14.138316	-7.275857	-1.961075	
0.18	-163.283809	686.603638	241.090132	0.794126	0.0	-0.879971	79.199989	25.282827	101.688118	0.0	0.0	0.0	290.275963	6.869375	-64.677157	-2.241864	-16.948916	2.055042	
0.19	-154.280756	686.342712	256.246564	0.795038	0.0	-0.892152	58.597057	34.368141	91.544151	0.0	0.0	0.0	298.525932	-1.885635	-64.02663	-16.909885	-11.34321	-2.357201	
0.2	-126.898762	692.752319	225.435771	0.803808	0.0	-0.900773	58.856155	15.610119	76.835968	0.0	0.0	0.0	307.285995	8.100706	-58.549373	-6.622193	-12.915664	0.315407	
0.21	-169.872415	670.83783	259.659743	0.791798	0.0	-0.912774	82.592766	23.256815	103.443741	0.0	0.0	0.0	305.616557	11.221003	-64.754009	-4.384321	-11.502006	2.417362	
0.22	-173.342062	649.869141	298.734542	0.785635	0.0	-0.925559	74.697433	40.805431	103.033058	0.0	0.0	0.0	304.371838	-3.951736	-66.735283	-13.850734	-18.548891	-1.480941	
